<?xml version="1.0" encoding="utf-8"?><!-- Uploaded to: SVG Repo, www.svgrepo.com, Generator: SVG Repo Mixer Tools -->
<svg fill="#000000" width="800px" height="800px" viewBox="0 0 24 24" id="up-alt" data-name="Flat Line" xmlns="http://www.w3.org/2000/svg" class="icon flat-line"><path id="secondary" d="M20.41,10.79l-1.84,2.45a1,1,0,0,1-1.36.24L15,12v8a1,1,0,0,1-1,1H10a1,1,0,0,1-1-1V12L6.79,13.48a1,1,0,0,1-1.36-.24L3.59,10.79A1,1,0,0,1,3.78,9.4l7.61-5.92a1,1,0,0,1,1.22,0L20.22,9.4A1,1,0,0,1,20.41,10.79Z" style="fill: rgb(44, 169, 188); stroke-width: 2;"></path><path id="primary" d="M20.41,10.79l-1.84,2.45a1,1,0,0,1-1.36.24L15,12v8a1,1,0,0,1-1,1H10a1,1,0,0,1-1-1V12L6.79,13.48a1,1,0,0,1-1.36-.24L3.59,10.79A1,1,0,0,1,3.78,9.4l7.61-5.92a1,1,0,0,1,1.22,0L20.22,9.4A1,1,0,0,1,20.41,10.79Z" style="fill: none; stroke: rgb(0, 0, 0); stroke-linecap: round; stroke-linejoin: round; stroke-width: 2;"></path></svg>